<svg
  width="120"
  height="104"
  viewBox="0 0 120 104"
  fill="none"
  xmlns="http://www.w3.org/2000/svg"
>
  <g fill="#1A4B5C">
    <path d="M46.2658 25.9815L60.134 1.91885L62.2432 5.5722L50.4669 25.9679Z" />
    <path d="M55.286 20.9628L58.1734 25.964L62.3849 25.9681L57.3881 17.3136Z" />
    <path d="M60.2792 12.2867L58.1771 15.9359L63.9902 25.9635L68.1913 25.9499Z" />
    <path d="M63.1954 7.22154L61.0933 10.8708L69.8245 25.9528L74.036 25.9569Z" />
    <path d="M46.2717 25.8941L60.1399 49.9567L62.2492 46.3034L50.4729 25.9077Z" />
    <path d="M55.2919 30.9127L58.1794 25.9115L62.3908 25.9074L57.3941 34.562Z" />
    <path d="M60.2852 39.5889L58.183 35.9397L63.9961 25.912L68.1973 25.9257Z" />
    <path d="M63.2014 44.654L61.0992 41.0048L69.8305 25.9228L74.0419 25.9187Z" />
    <path d="M76.0531 27.1426L103.826 27.1215L101.717 30.7749L78.1655 30.7741Z" />
    <path d="M84.9095 32.445L82.022 37.4462L84.1242 41.0955L89.1209 32.4409Z" />
    <path d="M94.9199 32.4312L90.7084 32.4353L84.9308 42.4834L87.0432 46.1149Z" />
    <path d="M100.764 32.4242L96.5531 32.4283L87.8573 47.5308L89.9594 51.18Z" />
    <path d="M76.1317 27.1041L62.227 51.1456H66.4455L78.2205 30.7492Z" />
    <path d="M76.2956 37.4251H82.0704L84.1797 41.0703H74.1863Z" />
    <path d="M71.2784 46.0875L73.3877 42.4423L84.9784 42.4628L87.0672 46.108Z" />
    <path d="M68.35 51.1456L70.4592 47.5004L87.8863 47.5209L89.9955 51.166Z" />
    <path d="M89.9411 53.5197L103.846 77.5613H99.6274L87.8524 57.1649Z" />
    <path d="M89.7773 63.8408H84.0024L81.8932 67.4859H91.8866Z" />
    <path d="M94.7945 72.5032L92.6852 68.858L81.0945 68.8785L79.0057 72.5236Z" />
    <path d="M97.7229 77.5612L95.6136 73.9161L78.1866 73.9366L76.0773 77.5817Z" />
    <path d="M90.0139 53.5686L62.2409 53.5475L64.3502 57.2008L87.9015 57.2001Z" />
    <path d="M81.1575 58.871L84.0449 63.8722L81.9428 67.5214L76.9461 58.8669Z" />
    <path d="M71.1471 58.8572L75.3585 58.8613L81.1361 68.9094L79.0237 72.5409Z" />
    <path d="M65.3024 58.8501L69.5138 58.8542L78.2096 73.9567L76.1075 77.606Z" />
    <path d="M74.0419 78.7357L60.1737 102.798L58.0645 99.145L69.8407 78.7494Z" />
    <path d="M65.0217 83.7544L62.1343 78.7532L57.9228 78.7491L62.9195 87.4036Z" />
    <path d="M60.0285 92.4306L62.1306 88.7813L56.3175 78.7537L52.1164 78.7673Z" />
    <path d="M57.1123 97.4957L59.2144 93.8464L50.4831 78.7644L46.2717 78.7603Z" />
    <path d="M74.036 78.8231L60.1678 54.7605L58.0585 58.4138L69.8348 78.8095Z" />
    <path d="M65.0158 73.8045L62.1283 78.8057L57.9169 78.8098L62.9136 70.1552Z" />
    <path d="M60.0225 65.1283L62.1247 68.7776L56.3116 78.8052L52.1104 78.7915Z" />
    <path d="M57.1063 60.0632L59.2085 63.7124L50.4772 78.7944L46.2658 78.7985Z" />
    <path d="M44.2546 77.5746L16.4817 77.5957L18.5909 73.9424L42.1422 73.9431Z" />
    <path d="M35.3982 72.2722L38.2857 67.271L36.1835 63.6217L31.1868 72.2763Z" />
    <path d="M25.3878 72.286L29.5993 72.2819L35.3769 62.2338L33.2645 58.6023Z" />
    <path d="M19.5432 72.293L23.7546 72.2889L32.4504 57.1864L30.3482 53.5372Z" />
    <path d="M44.176 77.6132L58.0807 53.5716H53.8622L42.0872 73.968Z" />
    <path d="M44.0121 67.2921H38.2372L36.128 63.6469H46.1214Z" />
    <path d="M49.0293 58.6297L46.92 62.2749L35.3293 62.2544L33.2405 58.6093Z" />
    <path d="M51.9577 53.5716L49.8485 57.2168L32.4214 57.1963L30.3122 53.5512Z" />
    <path d="M30.3666 51.1975L16.4618 27.156H20.6803L32.4553 47.5523Z" />
    <path d="M30.5304 40.8764H36.3053L38.4145 37.2313L28.4211 37.2313Z" />
    <path d="M25.5132 32.2141L27.6225 35.8592L39.2132 35.8387L41.302 32.1936Z" />
    <path d="M22.5848 27.156L24.6941 30.8011L42.1211 30.7806L44.2304 27.1355Z" />
    <path d="M30.2938 51.1486L58.0668 51.1697L55.9575 47.5164L32.4062 47.5171Z" />
    <path d="M39.1502 45.8462L36.2628 40.845L38.3649 37.1958L43.3616 45.8503Z" />
    <path d="M49.1606 45.86L44.9492 45.8559L39.1716 35.8078L41.284 32.1763Z" />
    <path d="M55.0053 45.8671L50.7939 45.863L42.0981 30.7605L44.2002 27.1112Z" />
  </g>
  <g fill="#1A4B5C" opacity="0.5">
    <path d="M89.7498 0.188477L103.655 24.23H99.4361L87.661 3.83361Z" />
    <path d="M89.586 10.5095L83.8111 10.5095L81.7018 14.1547H91.6952Z" />
    <path d="M94.6032 19.1719L92.4939 15.5267L80.9032 15.5472L78.8144 19.1923Z" />
    <path d="M97.5316 24.23L95.4223 20.5848L77.9953 20.6053L75.886 24.2505Z" />
    <path d="M89.8225 0.237335L62.0496 0.216219L64.1589 3.86957L87.7102 3.86884Z" />
    <path d="M80.9662 5.53974L83.8536 10.5409L81.7515 14.1902L76.7548 5.53563Z" />
    <path d="M70.9557 5.5259L75.1672 5.53001L80.9448 15.5781L78.8324 19.2096Z" />
    <path d="M65.1111 5.51889L69.3225 5.52299L78.0183 20.6255L75.9161 24.2747Z" />
    <path d="M119.647 51.8846L105.779 75.9472L103.67 72.2938L115.446 51.8982Z" />
    <path d="M110.627 56.9032L107.739 51.902L103.528 51.8979L108.525 60.5524Z" />
    <path d="M105.634 65.5794L107.736 61.9302L101.923 51.9025L97.7215 51.9162Z" />
    <path d="M102.717 70.6445L104.819 66.9952L96.0882 51.9132L91.8768 51.9091Z" />
    <path d="M119.641 51.972L105.773 27.9093L103.664 31.5627L115.44 51.9583Z" />
    <path d="M110.621 46.9533L107.733 51.9545L103.522 51.9586L108.519 43.3041Z" />
    <path d="M105.628 38.2771L107.73 41.9264L101.917 51.954L97.7155 51.9404Z" />
    <path d="M102.711 33.212L104.814 36.8612L96.0823 51.9432L91.8709 51.9474Z" />
    <path d="M89.8255 103.624L62.0526 103.645L64.1618 99.9921L87.7131 99.9928Z" />
    <path d="M80.9691 98.3219L83.8566 93.3207L81.7544 89.6715L76.7577 98.326Z" />
    <path d="M70.9587 98.3358L75.1701 98.3317L80.9478 88.2836L78.8354 84.6521Z" />
    <path d="M65.1141 98.3428L69.3255 98.3386L78.0213 83.2362L75.9191 79.5869Z" />
    <path d="M89.7468 103.663L103.652 79.6214H99.4331L87.6581 100.018Z" />
    <path d="M89.583 93.3418H83.8081L81.6989 89.6967H91.6923Z" />
    <path d="M94.6002 84.6795L92.4909 88.3246L80.9002 88.3041L78.8114 84.659Z" />
    <path d="M97.5286 79.6214L95.4194 83.2665L77.9923 83.246L75.8831 79.6009Z" />
    <path d="M30.1068 103.668L16.202 79.6265H20.4206L32.1956 100.023Z" />
    <path d="M30.2706 93.347L36.0455 93.347L38.1548 89.7018L28.1614 89.7018Z" />
    <path d="M25.2534 84.6846L27.3627 88.3298L38.9534 88.3093L41.0422 84.6642Z" />
    <path d="M22.3251 79.6265L24.4343 83.2717L41.8614 83.2512L43.9706 79.606Z" />
    <path d="M30.0341 103.619L57.807 103.64L55.6978 99.9869L32.1465 99.9877Z" />
    <path d="M38.8904 98.3168L36.003 93.3156L38.1052 89.6663L43.1019 98.3209Z" />
    <path d="M48.9009 98.3306L44.6895 98.3265L38.9118 88.2784L41.0242 84.6469Z" />
    <path d="M54.7455 98.3376L50.5341 98.3335L41.8383 83.231L43.9405 79.5818Z" />
    <path d="M0.209595 51.972L14.0778 27.9093L16.187 31.5627L4.41077 51.9583Z" />
    <path d="M9.22982 46.9533L12.1173 51.9545L16.3287 51.9586L11.332 43.3041Z" />
    <path d="M14.223 38.2771L12.1209 41.9264L17.9339 51.954L22.1351 51.9403Z" />
    <path d="M17.1393 33.212L15.0371 36.8613L23.7684 51.9433L27.9798 51.9474Z" />
    <path d="M0.215547 51.8846L14.0837 75.9472L16.193 72.2938L4.41672 51.8982Z" />
    <path d="M9.23575 56.9032L12.1232 51.902L16.3346 51.8979L11.3379 60.5524Z" />
    <path d="M14.229 65.5794L12.1268 61.9301L17.9399 51.9025L22.1411 51.9162Z" />
    <path d="M17.1452 70.6445L15.0431 66.9953L23.7743 51.9133L27.9857 51.9092Z" />
    <path d="M30.0311 0.232187L57.804 0.211067L55.6948 3.86442L32.1435 3.86369Z" />
    <path d="M38.8875 5.53461L36 10.5358L38.1022 14.1851L43.0989 5.53051Z" />
    <path d="M48.8979 5.52072L44.6865 5.52483L38.9089 15.5729L41.0212 19.2044Z" />
    <path d="M54.7425 5.51376L50.5311 5.51787L41.8353 20.6204L43.9375 24.2696Z" />
    <path d="M30.1098 0.193639L16.205 24.2352L20.4235 24.2352L32.1986 3.83877Z" />
    <path d="M30.2736 10.5147L36.0485 10.5147L38.1577 14.1598L28.1643 14.1598Z" />
    <path d="M25.2564 19.177L27.3657 15.5319L38.9564 15.5524L41.0452 19.1975Z" />
    <path d="M22.328 24.2352L24.4373 20.59L41.8643 20.6105L43.9736 24.2556Z" />
  </g>
</svg>
